<svg xmlns="http://www.w3.org/2000/svg" xmlns:xlink="http://www.w3.org/1999/xlink" xml:space="preserve" version="1.1" style="shape-rendering:geometricPrecision;text-rendering:geometricPrecision;image-rendering:optimizeQuality;" viewBox="0 0 2540 2540" x="0px" y="0px" fill-rule="evenodd" clip-rule="evenodd"><g><path  fill="#fff" class="fil0" d="M1270 173c303,0 577,123 776,321 198,199 321,473 321,776 0,303 -123,577 -321,776 -199,198 -473,321 -776,321 -303,0 -577,-123 -776,-321 -198,-199 -321,-473 -321,-776 0,-303 123,-577 321,-776 199,-198 473,-321 776,-321zm0 484c124,0 236,50 317,132 82,81 132,193 132,317 0,124 -50,236 -132,317 -40,40 -87,73 -139,95 105,17 206,50 299,95 140,67 263,164 362,282 130,-175 207,-391 207,-625 0,-289 -117,-550 -306,-740 -190,-189 -451,-306 -740,-306 -289,0 -550,117 -740,306 -189,190 -306,451 -306,740 0,234 77,450 207,625 99,-118 222,-215 362,-282 93,-45 194,-78 299,-95 -52,-22 -99,-55 -139,-95 -81,-81 -132,-193 -132,-317 0,-124 51,-236 132,-317 81,-82 193,-132 317,-132zm281 168c-72,-72 -171,-117 -281,-117 -110,0 -209,45 -281,117 -72,72 -117,171 -117,281 0,110 45,209 117,281 72,72 171,117 281,117 110,0 209,-45 281,-117 72,-72 117,-171 117,-281 0,-110 -45,-209 -117,-281zm526 1110c-95,-116 -216,-211 -352,-277 -138,-66 -292,-103 -455,-103 -163,0 -317,37 -455,103 -136,66 -257,161 -352,277 21,26 44,51 67,75 190,189 451,306 740,306 289,0 550,-117 740,-306 23,-24 46,-49 67,-75z"/></g></svg>