<svg xmlns="http://www.w3.org/2000/svg" viewBox="0 0 32 40">
  <path d="m27.19,11.55l-1.32-1.06c-.43-.35-1.06-.28-1.41.15-.35.43-.28,1.06.15,1.41l1.32,1.06c.68.54,1.07,1.34,1.07,2.19v7.84c0,1.58-1.35,2.86-3,2.86H8c-1.65,0-3-1.28-3-2.86v-7.84c0-.84.39-1.64,1.07-2.19l8-6.43c1.12-.9,2.75-.9,3.87,0l3.43,2.76c.3.24.71.29,1.06.12.35-.17.57-.52.57-.9v-2.89c0-.55-.45-1-1-1s-1,.45-1,1v.8l-1.8-1.45c-1.85-1.49-4.53-1.49-6.38,0l-8,6.43c-1.15.93-1.81,2.29-1.81,3.75v7.84c0,2.68,2.24,4.86,5,4.86h16c2.76,0,5-2.18,5-4.86v-7.84c0-1.45-.66-2.82-1.81-3.75Z" fill="#fff"/>
</svg>