<svg xmlns="http://www.w3.org/2000/svg" viewBox="0 0 100 125" x="0px" y="0px">
  <g fill="#fff">
    <path d="M85.6,27.3a11,11,0,0,0-11-11H70.2a8,8,0,0,0-7.4-5H59.5a10.5,10.5,0,0,0-19,0H37.2a8,8,0,0,0-7.4,5H25.4a11,11,0,0,0-11,11V83.6a11,11,0,0,0,11,11H74.6a11,11,0,0,0,11-11Zm-50.3-8a2,2,0,0,1,2-2h5.4a3,3,0,0,0,2.9-2.4,4.5,4.5,0,0,1,8.9,0,3,3,0,0,0,2.9,2.4h5.4a2,2,0,0,1,2,2v1.5a2,2,0,0,1-2,2H37.2a2,2,0,0,1-2-2ZM79.6,83.6a5,5,0,0,1-5,5H25.4a5,5,0,0,1-5-5V27.3a5,5,0,0,1,5-5h3.9a8,8,0,0,0,7.9,6.5H62.7a8,8,0,0,0,7.9-6.5h3.9a5,5,0,0,1,5,5Z"/>
    <path d="M39,39.3H29.5a3,3,0,0,0-3,3v9.5a3,3,0,0,0,3,3H39a3,3,0,0,0,3-3V42.3A3,3,0,0,0,39,39.3Zm-3,9.5H32.5V45.3H36Z"/>
    <path d="M69.5,44H50.2a3,3,0,0,0,0,6H69.5a3,3,0,0,0,0-6Z"/>
    <path d="M39,62.3H29.5a3,3,0,0,0-3,3v9.5a3,3,0,0,0,3,3H39a3,3,0,0,0,3-3V65.3A3,3,0,0,0,39,62.3Zm-3,9.5H32.5V68.3H36Z"/>
    <path d="M69.5,67H50.2a3,3,0,0,0,0,6H69.5a3,3,0,0,0,0-6Z" />
  </g>
</svg>