<svg
  xmlns="http://www.w3.org/2000/svg" x="0px" y="0px" viewBox="0 0 100 125">
  
  <g transform="translate(0,-952.36218)">
    <path d="m 50,965.36218 c -2.2092,0 -4,1.7909 -4,4 l 0,29.0001 -29,0 c -2.2091,0 -4,1.79082 -4,4.00002 0,2.2092 1.7909,4 4,4 l 29,0 0,28.9999 c 0,2.2091 1.7908,4 4,4 2.2092,0 4,-1.7909 4,-4 l 0,-28.9999 29,0 c 2.2091,0 4,-1.7908 4,-4 0,-2.2092 -1.7909,-4.00002 -4,-4.00002 l -29,0 0,-29.0001 c 0,-2.2091 -1.7908,-4 -4,-4 z" fill="#FFF" fill-opacity="1" stroke="none" marker="none"/>
  </g>
</svg>