<svg
  xmlns="http://www.w3.org/2000/svg"
  version="1.1"
  x="0px"
  y="0px"
  viewBox="0 0 100 125"
>
  <g transform="translate(0,-940)">
    <path
      d="m 38.997264,958.36216 c -18.1527,0 -32.9973,14.84439 -32.9973,32.9973 0,18.15284 14.8446,32.99734 32.9973,32.99734 6.9183,0 13.336,-2.1695 18.6547,-5.8433 l 26.091597,26.0916 c 2.3428,2.3427 6.1565,2.3428 8.4993,0 2.3429,-2.3429 2.3429,-6.1252 0,-8.4681 l -26.091597,-26.0915 c 3.6756,-5.3195 5.8433,-11.76581 5.8433,-18.68604 0,-18.15291 -14.8446,-32.9973 -32.9973,-32.9973 z m 0,11.99902 c 11.6678,0 20.9983,9.33033 20.9983,20.99828 0,11.66784 -9.3305,20.99834 -20.9983,20.99834 -11.6678,0 -20.9983,-9.3305 -20.9983,-20.99834 0,-11.66795 9.3305,-20.99828 20.9983,-20.99828 z"
      fill="#FFF"
      fill-opacity="1"
      overflow="visible"
    />
  </g>
</svg>
